<?xml version="1.0" encoding="UTF-8"?>
<svg version="1.1" xmlns="http://www.w3.org/2000/svg" width="512" height="512">
<path d="M0 0 C27.26416799 24.67043395 44.63727921 57.78857447 50.49267578 94.03222656 C50.66774658 95.09932861 50.84281738 96.16643066 51.02319336 97.26586914 C51.52735532 101.31043835 51.6714317 105.29163453 51.69580078 109.36035156 C51.70286041 110.14271683 51.70992004 110.92508209 51.7171936 111.7311554 C51.94428483 144.29091505 51.94428483 144.29091505 48.49267578 158.03222656 C48.29399902 158.85319824 48.09532227 159.67416992 47.890625 160.52001953 C38.09073004 200.10865886 15.63059779 232.15590211 -12.03076172 261.46289062 C-16.08807022 265.77512261 -20.08307056 270.1459634 -24.09326172 274.50195312 C-25.43363914 275.95248588 -26.78273792 277.39494536 -28.13232422 278.83691406 C-37.98260478 289.45674779 -46.48942765 300.97830499 -54.50732422 313.03222656 C-55.16788818 314.01642578 -55.16788818 314.01642578 -55.84179688 315.02050781 C-69.32064957 335.23644271 -79.95665467 356.84137559 -89.10498047 379.31738281 C-95.87645675 395.71679283 -95.87645675 395.71679283 -102.50732422 399.03222656 C-107.50732171 400.69889239 -111.79386509 400.60846517 -116.63232422 398.53222656 C-124.03004834 394.33454059 -126.54412903 385.90323944 -129.25732422 378.28222656 C-141.21596234 346.01324682 -158.24273055 317.2654336 -180.50732422 291.03222656 C-181.03293945 290.40896484 -181.55855469 289.78570312 -182.10009766 289.14355469 C-188.28539221 281.8277786 -194.67170804 274.73941913 -201.25732422 267.78222656 C-206.97084676 261.74340963 -212.34511746 255.55290879 -217.50732422 249.03222656 C-218.4351198 247.90566577 -219.3649332 246.78076481 -220.29638672 245.65722656 C-246.82839524 213.44598092 -268.46299778 173.2765994 -268.71044922 130.57128906 C-268.71614929 129.78184906 -268.72184937 128.99240906 -268.72772217 128.17904663 C-268.73711383 126.51342074 -268.74368274 124.84777676 -268.74755859 123.18212891 C-268.75716569 120.69821385 -268.78820338 118.21516347 -268.81982422 115.73144531 C-268.91415897 101.51242507 -267.24085912 87.66463148 -263.25732422 73.96972656 C-263.0460791 73.2355249 -262.83483398 72.50132324 -262.6171875 71.74487305 C-250.48638426 31.028742 -221.69584662 -2.95420544 -184.66625977 -23.34765625 C-124.21671099 -55.33583268 -50.65722793 -45.12486211 0 0 Z M-154.50732422 69.03222656 C-155.44511719 69.82886719 -155.44511719 69.82886719 -156.40185547 70.64160156 C-166.94848962 80.25975099 -174.61726959 96.13986912 -175.68432617 110.3972168 C-176.21501845 131.55936422 -172.79504395 149.01613773 -157.69433594 164.921875 C-144.27640911 178.53638475 -127.61017599 185.97037798 -108.50732422 186.53222656 C-91.63552665 186.03599722 -76.23974156 180.2386613 -63.50732422 169.03222656 C-62.81896484 168.42636719 -62.13060547 167.82050781 -61.42138672 167.19628906 C-48.13700394 154.72627457 -41.57789815 137.64570381 -40.54638672 119.74707031 C-40.35522559 101.56764674 -47.41234398 83.79372345 -60.13232422 70.78222656 C-73.81289039 57.44947139 -90.93882914 50.75523924 -109.97900391 50.71533203 C-126.9709131 51.02630009 -141.88273664 57.83974752 -154.50732422 69.03222656 Z " fill="#00AC47" transform="translate(364.50732421875,76.9677734375)"/>
<path d="M0 0 C4.60409633 3.85097991 8.98167412 7.83927177 13.21069336 12.09716797 C13.78717621 12.67350479 14.36365906 13.24984161 14.95761108 13.84364319 C16.83740595 15.72412735 18.71364693 17.60811409 20.58984375 19.4921875 C21.90241431 20.80662574 23.21520776 22.12084144 24.5282135 23.43484497 C27.96463602 26.87506512 31.39804337 30.31827893 34.83081055 33.762146 C38.34175501 37.28336411 41.8555717 40.80171349 45.36914062 44.3203125 C52.24889212 51.21075268 59.12545855 58.10436205 66 65 C64.40715921 68.31565599 62.52336895 70.97601401 60.25 73.875 C48.67477991 89.61729932 45.74727828 108.08362265 48.28857422 127.16699219 C51.67159834 145.01301205 63.22903355 160.12025909 77.98046875 170.25 C94.75656865 179.97275906 113.49916424 182.78623033 132.25341797 177.84741211 C140.15003219 175.55690351 147.53100327 172.0935792 154 167 C154.66 167.33 155.32 167.66 156 168 C118.05 205.95 80.1 243.9 41 283 C33.19354839 276.30875576 33.19354839 276.30875576 30.875 273.5 C28.11255434 270.2460381 25.25296672 267.11120075 22.33032227 264.00219727 C16.26282149 257.54554254 10.52338357 250.93240999 5 244 C4.06923838 242.87113255 3.13685448 241.74360135 2.203125 240.6171875 C-24.32170002 208.40164503 -45.95567319 168.24443611 -46.203125 125.5390625 C-46.20882507 124.7496225 -46.21452515 123.9601825 -46.22039795 123.14682007 C-46.22978961 121.48119418 -46.23635852 119.8155502 -46.24023438 118.14990234 C-46.24984147 115.66598728 -46.28087916 113.18293691 -46.3125 110.69921875 C-46.40683475 96.48019851 -44.7335349 82.63240492 -40.75 68.9375 C-40.53875488 68.20329834 -40.32750977 67.46909668 -40.10986328 66.71264648 C-32.43525927 40.95341386 -18.31247474 19.4423934 0 0 Z " fill="#FEB900" transform="translate(142,82)"/>
<path d="M0 0 C14.01239922 12.67935151 25.1498727 27.22045861 33.99267578 43.90722656 C34.38962646 44.65480225 34.78657715 45.40237793 35.19555664 46.17260742 C38.20731267 52.05110662 40.19379447 57.71030297 42.49267578 64.03222656 C10.48267578 96.04222656 -21.52732422 128.05222656 -54.50732422 161.03222656 C-54.50732422 157.50226869 -53.73222653 156.5571414 -51.81982422 153.65722656 C-42.31481494 138.15260149 -39.6103882 121.28074341 -43.22607422 103.49707031 C-46.63331569 90.23526407 -52.79185689 79.62879831 -62.50732422 70.03222656 C-63.12091797 69.39671875 -63.73451172 68.76121094 -64.36669922 68.10644531 C-75.94110706 56.95247536 -92.7532793 52.01008898 -108.50732422 51.53222656 C-125.09473287 52.02009152 -139.9039345 57.4932937 -152.44873047 68.49316406 C-154.50732422 70.03222656 -154.50732422 70.03222656 -157.50732422 70.03222656 C-159.68903498 68.13257834 -161.7005688 66.21667565 -163.72290039 64.15722656 C-164.34756699 63.53299805 -164.97223358 62.90876953 -165.61582947 62.265625 C-167.68450456 60.19485527 -169.74234411 58.11365202 -171.80029297 56.03222656 C-173.23024705 54.59667895 -174.66086371 53.16179105 -176.09211731 51.72753906 C-179.86183196 47.94635662 -183.62245222 44.15625225 -187.38128662 40.36425781 C-191.2167041 36.49818128 -195.06060228 32.64055766 -198.90380859 28.78222656 C-206.44666665 21.20717021 -213.97994984 13.62266712 -221.50732422 6.03222656 C-212.84503209 -12.38113971 -182.58042189 -25.54735563 -164.54516602 -32.26757812 C-107.38401794 -52.55107258 -45.22167806 -40.28293829 0 0 Z " fill="#4185F3" transform="translate(364.50732421875,76.9677734375)"/>
<path d="M0 0 C4.60409633 3.85097991 8.98167412 7.83927177 13.21069336 12.09716797 C13.78717621 12.67350479 14.36365906 13.24984161 14.95761108 13.84364319 C16.83740595 15.72412735 18.71364693 17.60811409 20.58984375 19.4921875 C21.90241431 20.80662574 23.21520776 22.12084144 24.5282135 23.43484497 C27.96463602 26.87506512 31.39804337 30.31827893 34.83081055 33.762146 C38.34175501 37.28336411 41.8555717 40.80171349 45.36914062 44.3203125 C52.24889212 51.21075268 59.12545855 58.10436205 66 65 C63.60084804 69.95477035 60.6027441 73.55452573 56.41320801 77.11341858 C51.74127998 81.16861099 47.37670931 85.49001178 43.01367188 89.87280273 C42.15418945 90.73213913 41.29470703 91.59147552 40.40917969 92.47685242 C38.07733389 94.80927115 35.74770633 97.14387723 33.41908836 99.4795177 C30.9759057 101.92899672 28.52984743 104.3756009 26.08410645 106.82252502 C21.46411708 111.44560932 16.84668041 116.07123434 12.23017931 120.69780165 C6.9696939 125.9695056 1.70633265 131.23833431 -3.55725956 136.50693595 C-14.37468574 147.33478485 -25.18853558 158.16619816 -36 169 C-36.99 168.67 -37.98 168.34 -39 168 C-39.76782227 166.27270508 -39.76782227 166.27270508 -40.31640625 164.01953125 C-40.52330078 163.18357422 -40.73019531 162.34761719 -40.94335938 161.48632812 C-41.14767578 160.60396484 -41.35199219 159.72160156 -41.5625 158.8125 C-41.77068359 157.98041016 -41.97886719 157.14832031 -42.19335938 156.29101562 C-45.28878199 143.45325978 -46.3511664 130.85317732 -46.31567383 117.69726562 C-46.31252136 115.26646665 -46.33604977 112.8368992 -46.36132812 110.40625 C-46.41845059 96.3104374 -44.69781624 82.50960855 -40.75 68.9375 C-40.53875488 68.20329834 -40.32750977 67.46909668 -40.10986328 66.71264648 C-32.43525927 40.95341386 -18.31247474 19.4423934 0 0 Z " fill="#E84535" transform="translate(142,82)"/>
<path d="M0 0 C-1.44110431 3.29986149 -3.22394287 5.46753341 -5.77114868 7.99819946 C-6.94904716 9.17588646 -6.94904716 9.17588646 -8.15074158 10.37736511 C-9.44438377 11.65550835 -9.44438377 11.65550835 -10.76416016 12.95947266 C-12.15691012 14.34773983 -13.54965982 15.73600726 -14.94239974 17.12428451 C-16.43794857 18.61309725 -17.93595411 20.09939734 -19.43468094 21.58501053 C-22.55717339 24.68045536 -25.6720204 27.78351705 -28.78573608 30.88778687 C-35.39293069 37.47278954 -42.0085442 44.0493048 -48.625 50.625 C-55.77462068 57.73060891 -62.92279308 64.83763849 -70.06127584 71.95443952 C-73.15945678 75.04263225 -76.262455 78.12587784 -79.3691752 81.20547891 C-80.83318376 82.65819016 -82.29491297 84.11314827 -83.75563049 85.56916809 C-85.54005844 87.34783029 -87.32811429 89.12286256 -89.12031555 90.89369202 C-89.89994156 91.67317703 -90.67956757 92.45266205 -91.4828186 93.25576782 C-92.16603495 93.93454294 -92.84925129 94.61331806 -93.55317116 95.31266212 C-95.21697707 96.88259454 -95.21697707 96.88259454 -95 99 C-97.31 100.65 -99.62 102.3 -102 104 C-123.45 82.55 -144.9 61.1 -167 39 C-157.00751372 19.01502744 -124.68504063 5.57989639 -104.69091797 -1.14794922 C-70.48265274 -11.97963545 -33.95224709 -12.00275838 0 0 Z " fill="#0066DA" transform="translate(310,44)"/>
<path d="M0 0 C0.66 0.66 1.32 1.32 2 2 C-1.3 5.3 -4.6 8.6 -8 12 C-8.66 11.67 -9.32 11.34 -10 11 C-6.7 7.37 -3.4 3.74 0 0 Z " fill="#C2564C" transform="translate(142,82)"/>
</svg>
